<svg id="Calque_1" data-name="Calque 1" xmlns="http://www.w3.org/2000/svg" viewBox="0 0 330.9 16.2"><defs><style>.cls-1{fill:#6e4ccb;}.cls-2{fill:#b7a1e4;}.cls-3{fill:#dacaf1;}.cls-4{fill:#9276d8;}.cls-5{fill:#decff2;}</style></defs><path class="cls-1" d="M465.86,467.86c-12.81.8-25.54,2.14-37.69,6.64a14.71,14.71,0,0,1-6.41.45c-44.85-3.11-89.77-4.35-134.71-5.16-31.63-.56-63.26-1.31-94.88-2-.53-1.92,1.36-1,1.93-1.64,12.32-.19,24.64-.3,37-.59,40.94-1,81.89-1.78,122.82-3.09,22.45-.71,44.91-1.45,67.29-3.53,7.61-.7,14,3.66,21.32,4.47,7.76.86,15.43,2.52,23.28,2.7C466.66,466.66,466.6,467.24,465.86,467.86Z" transform="translate(-140.88 -458.89)"/><path class="cls-2" d="M160.13,466l18,.07c0,2.29-2.15.75-2.9,1.69l-18,0C156.94,465.18,159.6,467.33,160.13,466Z" transform="translate(-140.88 -458.89)"/><path class="cls-3" d="M160.13,466l-2.87,1.79H141l-.08-1.79Z" transform="translate(-140.88 -458.89)"/><path class="cls-4" d="M175.21,467.8l2.9-1.69,16,.06-1.93,1.64Z" transform="translate(-140.88 -458.89)"/><path class="cls-5" d="M465.86,467.86l-.09-1.73c1.89-.16,3.82-.66,6,.72C469.86,468.67,467.78,467.87,465.86,467.86Z" transform="translate(-140.88 -458.89)"/></svg>