<svg id="Calque_1" data-name="Calque 1" xmlns="http://www.w3.org/2000/svg" viewBox="0 0 389.72 14.27"><defs><style>.cls-1{fill:#4b9e42;}.cls-2{fill:#86cf61;}.cls-3{fill:#43973d;}.cls-4{fill:#6bb753;}.cls-5{fill:#acef76;}.cls-6{fill:#55a647;}.cls-7{fill:#8fd667;}.cls-8{fill:#63b14f;}.cls-9{fill:#a4e872;}.cls-10{fill:#96dd6a;}.cls-11{fill:#5cac4b;}.cls-12{fill:#72be57;}.cls-13{fill:#b8f87d;}.cls-14{fill:#9de26f;}.cls-15{fill:#fafcfa;}.cls-16{fill:#77c259;}.cls-17{fill:#7ec85e;}.cls-18{fill:#cafb9c;}</style></defs><path class="cls-1" d="M103.78,164.1l3.68-.32a113.8,113.8,0,0,1,17.9,0l2.06.35c4.7,1.3,5.58,4.14,3.35,10.74-1.38.93-2.85.61-4.32.29a80.2,80.2,0,0,0-16.1.07c-1.7.55-3.56-.23-5.21.63l-5.73-.07c-2.23-3.37-1.74-6.89-.59-10.44C100.16,163.77,102.26,165.06,103.78,164.1Z" transform="translate(-75.32 -162.82)"/><path class="cls-2" d="M307.2,175.83l-14.06.43c-3,.69-6.2-.37-9.21.63l-41.32,0a.82.82,0,0,1,.15-1.45c5.32-1.81,10.8-.67,16.2-.88,3.59-.09,7.19,0,10.78,0,7.92,0,7.92,0,9.89-7.11,1-1.44,2.73-.51,3.92-1.31l17.72-.28a15.08,15.08,0,0,1,5.4-.19C309.79,168.88,309.2,172.32,307.2,175.83Z" transform="translate(-75.32 -162.82)"/><path class="cls-3" d="M99.42,165.06q0,5.38,0,10.77c-6.11,0-12.23,0-18.34.13-3.44,0-4.47-2.13-4.83-5a12.47,12.47,0,0,1,.05-5.92l1.2-1.22a14.43,14.43,0,0,1,5.89-.09l5,.29C92,165.4,95.84,163.59,99.42,165.06Z" transform="translate(-75.32 -162.82)"/><path class="cls-4" d="M212.37,175.2c-12.34-1.15-24.69-.2-37-.38a1,1,0,0,1,.39-1.36c4.32-1.66,8.84-.49,13.25-.91,2.31-.21,5.31,1,6.52-2.06,1.34-3.44-2.05-3.89-3.83-5.32a1.14,1.14,0,0,1-.27-.91c8.34-.14,16.7-.62,25,1,2.62.13,4.36,1.25,4.27,4.11-.09,2.44.82,5.46-3,6.13C215.89,175.38,214.11,175.72,212.37,175.2Z" transform="translate(-75.32 -162.82)"/><path class="cls-5" d="M408.07,174l-11-.17c-1.25-3.07-2.23-6.3-4.9-8.57l27-.47c3.12-.55,6.27-.13,9.41-.25,2.84.45,1.8,2.54,1.7,4.16-.15,2.6-2.24,2.79-4.16,3.13l-3.13.41c-1.59.71-3.43-.33-5,.75l-4,.21C412.13,174,409.94,172.81,408.07,174Z" transform="translate(-75.32 -162.82)"/><path class="cls-6" d="M130.39,174.93a43.14,43.14,0,0,1,.05-5.91c.37-2.6-.94-3.9-3-4.85l7.62-.07c3,1,6.24-.12,9.29.69l9,.37a9.49,9.49,0,0,1,0,10.67l-17.63.06C134.07,174.91,132,176.16,130.39,174.93Z" transform="translate(-75.32 -162.82)"/><path class="cls-7" d="M307.2,175.83c-.5-3.29,1.21-6.82-1.12-9.9-.2-.46-.06-.74.45-.81l9.73-.3c2-.78,4.24.22,6.25-.72l4,.58a5.3,5.3,0,0,1,1-.14c8.16-.23,9.29,1.61,5.7,9.29l-7.06.39c-2,.67-4.25-.22-6.27.66C315.55,174.07,311.43,175.61,307.2,175.83Z" transform="translate(-75.32 -162.82)"/><path class="cls-8" d="M191.39,164.26c1.48,1.94,5.23-.94,5.94,3,1,5.28-.1,6.71-5.63,6.73l-16.35,0c-2.09.35-2.7-1.39-2.78-2.65-.21-3.51-2.22-5.18-5.24-6.13-.39-.57-.25-.93.42-1.09Z" transform="translate(-75.32 -162.82)"/><path class="cls-9" d="M392.21,165.24c6.12.29,4.89,4.79,4.9,8.58H334.24c.87-2.85,3.37-2.26,5.34-2.31,6-.14,11.92-.22,17.87,0,4.45,0,8.92.12,13.37,0,1.89-.07,4.45.27,4.4-2.66-.05-2.62-2.46-2.06-4.15-2.4-2.07-.42-4.81.83-5.85-2.26l15.62-.07c2,.93,4.22-.08,6.23.72Z" transform="translate(-75.32 -162.82)"/><path class="cls-10" d="M358.12,172.87c-6.4,0-12.79,0-19.19.14-1.58,0-3.31-.5-4.69.8l-1.06,0c0-.5,0-1,0-1.49,0-7,0-7-6.67-7.66,10.53-1.19,21.08-.61,31.63-.52A6.94,6.94,0,0,1,358.12,172.87Z" transform="translate(-75.32 -162.82)"/><path class="cls-11" d="M167.24,165c3.65-.15,7.1-.19,6.21,5.23a4.29,4.29,0,0,0,1.9,3.82c0,.27,0,.54,0,.82l-7,.41c-2.07.64-4.3-.21-6.35.65l-8.59,0V165.16l7.06-.4C162.7,164.47,165,164.16,167.24,165Z" transform="translate(-75.32 -162.82)"/><path class="cls-12" d="M217.15,175.06c3.42-2.85,3.06-7.4-.79-9.83,5.06-.66,10,.53,15,1,2.6.67,5.25.15,7.87.31a8.53,8.53,0,0,1,3.1.29c-1.77,3-2.47,6.45-4.13,9.5a11.66,11.66,0,0,1-4.85-.1l-15.68-.33C217.17,175.8,217,175.54,217.15,175.06Z" transform="translate(-75.32 -162.82)"/><path class="cls-13" d="M426.14,171.81c3.32-1.3,3.59-3.87,2.87-6.85-.32-.45-.23-.74.32-.87l4.57,0c3,1.11,6.11-.12,9.09.72,4.94.6,10-.2,14.85,1.3,2.27,1.21,5-.51,7.19,1.07-2.44,3.19-5.9,1.29-8.88,1.8-.9-.29-2.09-1.26-2,.84,3.61.8,7.73-1.05,10.9,2.08-2.61,1.09-5.26.67-7.92.27l-10-.17a14.68,14.68,0,0,0-8.18,0Z" transform="translate(-75.32 -162.82)"/><path class="cls-14" d="M358.12,172.87l0-8.71,7.07,0c2.76,1.7,5.81.72,8.71.76,3.26,0,3.21,2,3.24,4.27s-.32,3.87-3.17,3.8C368.71,172.87,363.41,172.91,358.12,172.87Z" transform="translate(-75.32 -162.82)"/><path class="cls-15" d="M242.33,166.88h-2.76a.6.6,0,0,1-.53-.77l44.51,0-3.31,1c-2.9,2.26-6.32,1.43-9.55,1.51-3.79.09-7.58.16-11.37-.08-4,.22-8,.13-11.95.06C245.54,168.5,243.7,168.37,242.33,166.88Z" transform="translate(-75.32 -162.82)"/><path class="cls-15" d="M125.36,163.82l-17.9,0A41.57,41.57,0,0,1,125.36,163.82Z" transform="translate(-75.32 -162.82)"/><path class="cls-15" d="M99.42,165.06c-3.66-.64-7.48.45-11-1l15.41.08Z" transform="translate(-75.32 -162.82)"/><path class="cls-15" d="M429.33,164.09c-.12.29-.23.58-.32.87l-9.82-.19C422.48,163.23,426,164.26,429.33,164.09Z" transform="translate(-75.32 -162.82)"/><path class="cls-15" d="M144.33,164.79c-3.11-.07-6.27.6-9.29-.69C138.14,164.27,141.33,163.23,144.33,164.79Z" transform="translate(-75.32 -162.82)"/><path class="cls-15" d="M443,164.79c-3-.13-6.17.89-9.09-.72C436.93,164.31,440.07,163.19,443,164.79Z" transform="translate(-75.32 -162.82)"/><path class="cls-15" d="M130.39,174.93c1.74.5,3.7-.18,5.34,1-3.1-.17-6.29.87-9.28-.69Z" transform="translate(-75.32 -162.82)"/><path class="cls-15" d="M233.34,176.2l4.94-.27c1.32-.91,2.61-1.13,3.85.14l.47.8C239.51,176.73,236.33,177.79,233.34,176.2Z" transform="translate(-75.32 -162.82)"/><path class="cls-15" d="M283.93,176.89c3-1.46,6.13-.59,9.21-.63C290.16,177.75,287,176.73,283.93,176.89Z" transform="translate(-75.32 -162.82)"/><path class="cls-16" d="M239,166.12c.18.25.35.51.53.77-2.75-.15-5.6.91-8.22-.69Z" transform="translate(-75.32 -162.82)"/><path class="cls-15" d="M438.93,171.94a10,10,0,0,1,8.18,0Z" transform="translate(-75.32 -162.82)"/><path class="cls-15" d="M457.12,172.15l7.92-.27C462.46,173.71,459.8,173.36,457.12,172.15Z" transform="translate(-75.32 -162.82)"/><path class="cls-15" d="M465,167.16c-2.34-.76-5,.55-7.19-1.07C460.25,166.36,462.91,165,465,167.16Z" transform="translate(-75.32 -162.82)"/><path class="cls-15" d="M167.24,165l-6.82-.19c2.33-1.48,4.87-.53,7.33-.63C167.59,164.41,167.42,164.69,167.24,165Z" transform="translate(-75.32 -162.82)"/><path class="cls-15" d="M322.51,164.1c-2,1.3-4.15.64-6.25.72C318.2,163.3,320.41,164.22,322.51,164.1Z" transform="translate(-75.32 -162.82)"/><path class="cls-15" d="M387.07,164.83c-2.09-.1-4.28.64-6.23-.72C382.93,164.23,385.14,163.29,387.07,164.83Z" transform="translate(-75.32 -162.82)"/><path class="cls-15" d="M76.29,165c0,2,0,3.94-.05,5.92A5.09,5.09,0,0,1,76.29,165Z" transform="translate(-75.32 -162.82)"/><path class="cls-15" d="M454.14,169.8c-.79,0-2.13-.18-1.45-1.11.86-1.16,2.35-.67,3.46.27Z" transform="translate(-75.32 -162.82)"/><path class="cls-15" d="M408.07,174c1.86-1.28,3.95-.79,6-.8C412.22,174.69,410.06,173.73,408.07,174Z" transform="translate(-75.32 -162.82)"/><path class="cls-15" d="M319.85,174.88c2-1.34,4.16-.63,6.27-.66C324.16,175.66,322,174.78,319.85,174.88Z" transform="translate(-75.32 -162.82)"/><path class="cls-15" d="M162,175.88c2-1.24,4.21-.64,6.35-.65C166.31,176.66,164.08,175.78,162,175.88Z" transform="translate(-75.32 -162.82)"/><path class="cls-15" d="M83.38,163.73l-5.89.09A5.27,5.27,0,0,1,83.38,163.73Z" transform="translate(-75.32 -162.82)"/><path class="cls-15" d="M217.15,175.06l.51.81c-1.79,0-3.67.71-5.29-.67Z" transform="translate(-75.32 -162.82)"/><path class="cls-15" d="M105.14,175.9a9.58,9.58,0,0,1,5.21-.63C108.74,176.54,106.89,175.84,105.14,175.9Z" transform="translate(-75.32 -162.82)"/><path class="cls-15" d="M418,173c1.51-1.22,3.26-.84,5-.75C421.52,173.56,419.71,172.8,418,173Z" transform="translate(-75.32 -162.82)"/><path class="cls-15" d="M306.53,165.12q-.24.4-.45.81l-4.81-.11C302.86,164.4,304.75,165.16,306.53,165.12Z" transform="translate(-75.32 -162.82)"/><path class="cls-17" d="M259.26,167.06h21c-.17,10.33,1.45,8.78-8.73,8.92-4.09.06-8.19,0-12.28,0A7.29,7.29,0,0,1,259.26,167.06Z" transform="translate(-75.32 -162.82)"/><path class="cls-16" d="M259.26,167.06l0,8.88-17.1.13-3.85-.14c-.19-3.7-.58-7.5,4.05-9.05Z" transform="translate(-75.32 -162.82)"/><path class="cls-18" d="M442.81,168c3-1.57,5.15-.77,7.86-1.11C447.8,169.32,447.8,169.32,442.81,168Z" transform="translate(-75.32 -162.82)"/></svg>