<svg id="Calque_1" data-name="Calque 1" xmlns="http://www.w3.org/2000/svg" viewBox="0 0 330.53 16.14"><defs><style>.cls-1{fill:#c57412;}.cls-2{fill:#c77718;}.cls-3{fill:#f0d4c2;}.cls-4{fill:#e2b487;}.cls-5{fill:#d3934c;}.cls-6{fill:#f2d8c9;}</style></defs><path class="cls-1" d="M290.1,429.17c28.43-.52,56.86-.86,85.29-1.6,46.19-1.2,92.4-1.93,138.5-5.36a31.41,31.41,0,0,1,12.66,1.49c10.77,3.58,22.07,4.67,33.36,5.55.82.22,1.28.65.91,1.56-12.92,1.18-25.88,2.19-38.15,7-1.94.76-4,.39-5.93.25-44.85-3.11-89.77-4.32-134.71-5.16-31.62-.59-63.24-1.31-94.86-2C287,428.38,289.45,430.31,290.1,429.17Z" transform="translate(-235.89 -422.1)"/><path class="cls-2" d="M577.7,419" transform="translate(-235.89 -422.1)"/><path class="cls-2" d="M577.85,439" transform="translate(-235.89 -422.1)"/><path class="cls-3" d="M253.14,431H236l-.06-1.8h19.26C255.5,430.92,253.64,430.2,253.14,431Z" transform="translate(-235.89 -422.1)"/><path class="cls-4" d="M253.14,431l2-1.8h18c.39,1.75-1.45,1-2,1.75Z" transform="translate(-235.89 -422.1)"/><path class="cls-5" d="M271.15,431l2-1.75,17,0-2.93,1.72Z" transform="translate(-235.89 -422.1)"/><path class="cls-4" d="M560.82,430.81l-.91-1.56,4-.05c.74.56.72,1.15.06,1.76Z" transform="translate(-235.89 -422.1)"/><path class="cls-6" d="M564,431l-.06-1.76c1,0,2.61-.7,2.52,1.06C566.36,431.31,564.87,431,564,431Z" transform="translate(-235.89 -422.1)"/></svg>