<svg id="Calque_1" data-name="Calque 1" xmlns="http://www.w3.org/2000/svg" viewBox="0 0 330.88 16.05"><defs><style>.cls-1{fill:#a46798;}.cls-2{fill:#d1aecc;}.cls-3{fill:#e8d1e4;}.cls-4{fill:#bb8bb2;}.cls-5{fill:#ebd5e7;}</style></defs><path class="cls-1" d="M141.09,428.21c12.31-.17,24.61-.28,36.91-.54,30.24-.63,60.48-1.18,90.72-2,24.41-.7,48.81-1.76,73.21-2.79,7.79-.33,15.57-1.06,23.35-1.65a33.52,33.52,0,0,1,13.18,1.43c11.11,3.58,22.67,5,34.33,5.54.87.54.82,1.13.08,1.74-12.8.77-25.49,2.16-37.63,6.6a11.45,11.45,0,0,1-4.9.58c-32.66-2.3-65.36-3.44-98.09-4.32-27.24-.73-54.48-1.55-81.74-1.91-17.11-.23-34.23-.65-51.34-1C138.63,427.93,140.54,428.86,141.09,428.21Z" transform="translate(-87.89 -421.07)"/><path class="cls-2" d="M107.13,428.09l18,0c.07,2.3-2.12.79-2.87,1.7l-18,.07C103.92,427.24,106.58,429.36,107.13,428.09Z" transform="translate(-87.89 -421.07)"/><path class="cls-3" d="M107.13,428.09l-2.9,1.81H88l-.08-1.81Z" transform="translate(-87.89 -421.07)"/><path class="cls-4" d="M122.23,429.83l2.87-1.7,16,.08-1.92,1.65Z" transform="translate(-87.89 -421.07)"/><path class="cls-5" d="M412.87,429.9c0-.58-.05-1.16-.08-1.74,1.88-.11,3.81-.66,6,.73C416.86,430.71,414.77,429.87,412.87,429.9Z" transform="translate(-87.89 -421.07)"/></svg>