<svg id="Calque_1" data-name="Calque 1" xmlns="http://www.w3.org/2000/svg" viewBox="0 0 288.11 9.66"><defs><style>.cls-1{fill:#3d1319;}</style></defs><path class="cls-1" d="M302.34,193.13c26.48,1.82,52.38-2.07,78.37-.94,19.62.85,39.26,1.26,58.89,1.95,1.81.06,4.55-.46,4.46,2.59s-2.82,2.14-4.62,2.31c-38.24,3.6-76.5.28-114.76.14-25.82-.1-51.64.1-77.46-.36-28.63-.52-57.2,2.07-85.82,1.35-1.78,0-4.37,1.21-5.2-1.31-.88-2.69.64-4.4,3.21-5.82,5.05-2.78,10.4-1.88,15.58-1.72C217.59,192.57,260.2,193.63,302.34,193.13Z" transform="translate(-155.95 -191.05)"/></svg>