<svg xmlns="http://www.w3.org/2000/svg" viewBox="0 0 143.56 154.92"><defs><style>.cls-1{fill:#f5906a;}.cls-2{fill:#f06267;}.cls-3{fill:#ef5262;}.cls-4{fill:#f37f6a;}.cls-5{fill:#f16565;}.cls-6{fill:#f16b68;}.cls-7{fill:#f37a68;}</style></defs><g id="Calque_2" data-name="Calque 2"><g id="Calque_1-2" data-name="Calque 1"><path class="cls-1" d="M143.47,9.08c0,37.78.17,75.56,0,113.34,0,7.45-5.31,12.22-11.21,15.46-6.64,3.65-14,5.18-21.68,3-6.44-1.8-11.23-5.46-12.73-12s2.09-11.62,6.79-15.66c7.86-6.75,17.14-8.25,27.54-6.16.13-1.72.33-3.15.33-4.58,0-19.81.06-39.62-.08-59.42,0-1.66-1.22-3.31-1.87-5C134.31,28.72,138,19.35,141.81,10,142,9.56,142.9,9.39,143.47,9.08Z"/><path class="cls-2" d="M46.08,73.09c.08,21,.24,41.93.13,62.89,0,2.33-1.23,4.87-2.52,6.91-4.81,7.58-12.16,11.28-20.84,11.94a31.41,31.41,0,0,1-11.76-1.36c-11.8-3.81-14.72-15.95-6.15-25,7.16-7.53,16.11-10.22,26.33-8.94.81.1,1.62.27,2.43.38a11.28,11.28,0,0,0,1.65-.4c0-10,0-20.2,0-30.45,1.41-1.8,2.95-3.52,4.2-5.42C41.81,80.19,43.91,76.61,46.08,73.09Z"/><path class="cls-3" d="M46.08,73.09c-2.17,3.52-4.27,7.1-6.54,10.56-1.25,1.9-2.79,3.62-4.2,5.42,0-4.8,0-9.6-.09-14.4-.12-13.79-.14-27.58-.46-41.37-.08-3.79,1.19-5.71,4.79-6.88,10.69-3.46,21.3-7.2,31.93-10.83q-1,5.7-1.94,11.39C64,29,58.37,31,52.8,33.05c-7.16,2.68-7.78,4.09-5.41,11.83l16.15-4.16c-.34,2.33-.67,4.65-1,7-4.27,1.33-8.65,2.39-12.75,4.13a6.26,6.26,0,0,0-3.23,4.37C46.06,61.8,46.19,67.45,46.08,73.09Z"/><path class="cls-4" d="M143.47,9.08c-.57.31-1.48.48-1.66.94-3.79,9.33-7.5,18.7-11.22,28.06l-31,2.65c.67-2.88,1.35-5.76,2-8.64,8.83-1.35,17.63-2.9,26.49-4,3.31-.39,4.82-1.32,4.54-4.8-.24-2.92-.05-5.87-.05-9.26l-9,.68q1.52-5.85,3-11.68L143.47,0Z"/><path class="cls-5" d="M69.57,27q1-5.7,1.94-11.39l32.07-8.37q-1.5,5.79-3,11.56Z"/><path class="cls-6" d="M101.59,32.09c-.67,2.88-1.35,5.76-2,8.64l-37,7c.34-2.33.67-4.65,1-7Z"/><path class="cls-7" d="M100.57,18.78q1.5-5.78,3-11.56l23-4.14q-1.5,5.83-3,11.68Z"/></g></g></svg>